<svg width="8" height="13" viewBox="0 0 8 13" fill="none" xmlns="http://www.w3.org/2000/svg">
    <path
        d="M1.67672e-05 6.52966C-0.00074379 6.40697 0.024468 6.28534 0.0742069 6.17176C0.123946 6.05818 0.197234 5.95487 0.289867 5.86775L6.28679 0.274171C6.475 0.0986223 6.73026 1.51415e-08 6.99642 1.19675e-08C7.26259 8.79354e-09 7.51785 0.0986223 7.70606 0.274171C7.89427 0.44972 8 0.687815 8 0.936078C8 1.18434 7.89427 1.42244 7.70606 1.59799L2.40878 6.52966L7.69606 11.4613C7.85981 11.6397 7.94537 11.8691 7.93565 12.1037C7.92594 12.3383 7.82166 12.5609 7.64365 12.7269C7.46565 12.893 7.22703 12.9902 6.97549 12.9993C6.72394 13.0084 6.47799 12.9286 6.28679 12.7758L0.289867 7.18225C0.105218 7.0086 0.00112065 6.77423 1.67672e-05 6.52966Z"
        fill="#1A1A1A" />
</svg>
