<svg width="20" height="20" viewBox="0 0 20 20" fill="none" xmlns="http://www.w3.org/2000/svg">
    <path
        d="M5.44235 4.61382L3.78524 2.95672C3.55637 2.72785 3.18555 2.72785 2.95668 2.95672C2.72782 3.18558 2.72782 3.5564 2.95668 3.78527L4.61379 5.44238C4.84266 5.67125 5.21348 5.67125 5.44235 5.44238C5.67122 5.21351 5.67122 4.84269 5.44235 4.61382Z"
        fill="white" />
    <path
        d="M2.96875 9.41406H0.585938C0.26207 9.41406 0 9.67613 0 10C0 10.3239 0.26207 10.5859 0.585938 10.5859H2.96875C3.29262 10.5859 3.55469 10.3239 3.55469 10C3.55469 9.67613 3.29262 9.41406 2.96875 9.41406Z"
        fill="white" />
    <path
        d="M19.4141 9.41406H17.0312C16.7074 9.41406 16.4453 9.67613 16.4453 10C16.4453 10.3239 16.7074 10.5859 17.0312 10.5859H19.4141C19.7379 10.5859 20 10.3239 20 10C20 9.67613 19.7379 9.41406 19.4141 9.41406Z"
        fill="white" />
    <path
        d="M17.0433 2.95672C16.8144 2.72785 16.4436 2.72785 16.2147 2.95672L14.5576 4.61382C14.3288 4.84269 14.3288 5.21351 14.5576 5.44238C14.7865 5.67125 15.1573 5.67125 15.3862 5.44238L17.0433 3.78527C17.2722 3.5564 17.2722 3.18562 17.0433 2.95672Z"
        fill="white" />
    <path
        d="M10 0C9.67613 0 9.41406 0.26207 9.41406 0.585938V2.96875C9.41406 3.29262 9.67613 3.55469 10 3.55469C10.3239 3.55469 10.5859 3.29262 10.5859 2.96875V0.585938C10.5859 0.26207 10.3239 0 10 0Z"
        fill="white" />
    <path
        d="M13.2813 5.86323C12.004 4.85542 10.3516 4.49218 8.73438 4.87889C6.85938 5.31249 5.3477 6.80073 4.89063 8.66405C4.4336 10.539 4.96094 12.4374 6.30856 13.7617C6.78907 14.2422 7.07032 14.996 7.07032 15.7695V15.8984C7.07032 16.2265 7.32809 16.4844 7.65626 16.4844H12.3438C12.6719 16.4844 12.9297 16.2265 12.9297 15.8984V15.7695C12.9297 15.0078 13.2227 14.2304 13.7383 13.7265C14.7227 12.7304 15.2734 11.4062 15.2734 9.99999C15.2734 8.3828 14.5469 6.87104 13.2813 5.86323ZM10 8.24218C9.11602 8.24218 8.47251 8.82854 8.30399 9.50733C8.22731 9.81604 7.91668 10.0131 7.59387 9.93534C7.28032 9.85753 7.0886 9.53936 7.16645 9.22581C7.45676 8.05393 8.55747 7.0703 10 7.0703C10.3239 7.0703 10.5859 7.33237 10.5859 7.65624C10.5859 7.98011 10.3239 8.24218 10 8.24218Z"
        fill="white" />
    <path
        d="M7.65625 17.6562V18.2422C7.65625 19.2115 8.44477 20 9.41406 20H10.5859C11.5552 20 12.3438 19.2115 12.3438 18.2422V17.6562H7.65625Z"
        fill="white" />
</svg>
