<svg width="14" height="14" viewBox="0 0 14 14" fill="none" xmlns="http://www.w3.org/2000/svg">
    <path
        d="M7.99998 6.96806C8.00074 7.10019 7.97553 7.23117 7.92579 7.35349C7.87605 7.47581 7.80277 7.58707 7.71013 7.68088L1.71321 13.7047C1.52501 13.8938 1.26974 14 1.00358 14C0.737411 14 0.482148 13.8938 0.293941 13.7047C0.105734 13.5157 1.16876e-08 13.2593 0 12.9919C-1.16858e-08 12.7246 0.105734 12.4681 0.293941 12.2791L5.59122 6.96806L0.303935 1.65702C0.140193 1.46496 0.0546305 1.2179 0.0643466 0.965227C0.0740628 0.71255 0.178342 0.47286 0.356345 0.294057C0.534348 0.115255 0.772965 0.0105092 1.02451 0.000749371C1.27606 -0.00901045 1.52201 0.0769341 1.71321 0.241412L7.71013 6.26527C7.89478 6.45227 7.99888 6.70467 7.99998 6.96806Z"
        fill="#999999" />
    <path
        d="M6.00002 7.03194C5.99926 6.89981 6.02447 6.76883 6.07421 6.64651C6.12395 6.52419 6.19723 6.41293 6.28987 6.31912L12.2868 0.295261C12.475 0.106209 12.7303 3.17399e-09 12.9964 0C13.2626 -3.17399e-09 13.5179 0.106209 13.7061 0.295261C13.8943 0.484314 14 0.740724 14 1.00808C14 1.27545 13.8943 1.53186 13.7061 1.72091L8.40878 7.03194L13.6961 12.343C13.8598 12.535 13.9454 12.7821 13.9357 13.0348C13.9259 13.2874 13.8217 13.5271 13.6437 13.7059C13.4657 13.8847 13.227 13.9895 12.9755 13.9993C12.7239 14.009 12.478 13.9231 12.2868 13.7586L6.28987 7.73473C6.10522 7.54773 6.00112 7.29533 6.00002 7.03194Z"
        fill="#999999" />
</svg>
