<?xml version="1.0" encoding="utf-8"?><!-- Generator: Adobe Illustrator 27.1.0, SVG Export Plug-In . SVG Version: 6.00 Build 0)  -->
<svg version="1.1" id="Layer_1" xmlns="http://www.w3.org/2000/svg" x="0px" y="0px"
    viewBox="0 0 11 18" style="enable-background:new 0 0 11 18;" xml:space="preserve">
<style type="text/css">
	.st0{fill:#FFFFFF;}
</style>
    <g>
	<path class="st0" d="M10.3,11.5c0,1.3-0.6,2.6-1.8,3.3c-0.8,0.5-1.2,0.5-1.4,0.6l-0.2,0.1c-0.1,0-0.2,0.2-0.2,0.3
		c0,0.1,0,0.2,0,0.4c0,0.2,0,0.5,0,1v0.4l0,0.2l0,0c0,0-0.1,0-0.2,0H4.5c-0.1,0-0.2,0-0.2,0s0,0,0-0.2v-1.8l-0.2,0
		c-0.6-0.1-1.2-0.2-1.7-0.3c-0.5-0.1-1.1-0.4-1.6-0.6l-0.1-0.1l0,0l0-0.1c0.2-0.8,0.4-1.5,0.6-2.3l0.1-0.1l0,0l0.1,0
		c1,0.5,2.1,0.9,3.3,0.9c0.3,0,0.6,0,1-0.1c0.3-0.1,0.6-0.2,0.8-0.4c0.2-0.2,0.3-0.5,0.3-0.8c0-0.2-0.1-0.5-0.3-0.8
		c-0.4-0.4-1-0.6-1.4-0.8C4.4,10,3.7,9.7,3,9.4h0c-1.4-0.6-2.2-2-2.2-3.3c0-1,0.4-1.9,1.2-2.6c0.6-0.5,1.3-0.9,2-1
		c0.1,0,0.2-0.1,0.3-0.2C4.4,2.1,4.4,2,4.4,1.9v0c0-0.2,0-0.4,0-0.6c0-0.2,0-0.5,0-0.8c0-0.1,0-0.2,0-0.2s0,0,0.2,0h1.8l0.2,0l0,0
		c0,0,0,0.1,0,0.2v0.6c0,0.2,0,0.4,0,0.6v0c0,0.1,0,0.2,0.1,0.3C6.9,2.1,7,2.2,7.1,2.2C8,2.2,8.8,2.4,9.6,2.8c0.1,0,0.1,0.1,0.1,0.1
		l0,0l0,0.1C9.5,3.8,9.4,4.5,9.1,5.2c0,0.1-0.1,0.2-0.1,0.2l0,0c0,0-0.1,0-0.2-0.1C8,5,7.1,4.7,6.2,4.7c-0.4,0-0.8,0-1.2,0.2l0,0h0
		C4.5,5,4.2,5.3,4.2,5.7c0,0.3,0.2,0.6,0.5,0.8v0h0c0.5,0.3,1,0.6,1.5,0.8c0.8,0.3,1.6,0.6,2.3,1C9.7,9,10.3,10.3,10.3,11.5z" />
</g>
</svg>