<svg width="22" height="21" viewBox="0 0 22 21" fill="none" xmlns="http://www.w3.org/2000/svg">
    <path fill-rule="evenodd" clip-rule="evenodd"
        d="M3.07648 0.25L18.9235 0.25C19.4719 0.250435 20.0087 0.410972 20.4675 0.711666C20.9263 1.01233 21.2878 1.44003 21.5088 1.94238C21.7298 2.44469 21.801 3.00044 21.7139 3.54234C21.6268 4.08425 21.3852 4.58961 21.0176 4.99694L14.343 12.3795V16.2745C14.3429 16.4978 14.2929 16.7188 14.1965 16.9203C14.1002 17.1219 13.9598 17.2995 13.7856 17.4398L10.0818 20.4198C10.0818 20.4198 10.0819 20.4197 10.0818 20.4198C9.81809 20.6325 9.48941 20.7493 9.15013 20.75C8.9228 20.751 8.69848 20.6991 8.49476 20.5986C8.24345 20.4758 8.03204 20.2848 7.88416 20.0479C7.7357 19.81 7.6571 19.5353 7.65698 19.2552V12.3795L0.982859 4.99749C0.615326 4.59017 0.373167 4.08425 0.286104 3.54234C0.199044 3.00044 0.270211 2.44469 0.491186 1.94238C0.712178 1.44003 1.07369 1.01233 1.53247 0.711666C1.9913 0.410972 2.52806 0.250434 3.07648 0.25ZM9.15013 20.75C9.14956 20.75 9.149 20.75 9.14843 20.75L9.14785 20L9.15252 20.75C9.15172 20.75 9.15093 20.75 9.15013 20.75ZM3.07681 1.75C2.82072 1.75025 2.56988 1.82521 2.35467 1.96625C2.13935 2.10737 1.96875 2.30873 1.8642 2.54639C1.75964 2.78408 1.72583 3.04746 1.76711 3.3044C1.80837 3.56119 1.92274 3.79991 2.09575 3.99177C2.09566 3.99167 2.09584 3.99187 2.09575 3.99177L9.15698 11.802V19.2386L12.843 16.273V11.802L19.904 3.99207C19.9039 3.99216 19.9041 3.99199 19.904 3.99207C20.077 3.8002 20.1916 3.56121 20.2329 3.3044C20.2742 3.04746 20.2404 2.78408 20.1358 2.54639C20.0312 2.30873 19.8607 2.10737 19.6453 1.96625C19.4301 1.82521 19.1793 1.75025 18.9232 1.75H3.07681Z"
        fill="black" />
</svg>
