<svg width="17" height="16" viewBox="0 0 17 16" fill="none" xmlns="http://www.w3.org/2000/svg">
    <path
        d="M15.1464 0H13.5576V1.6C13.5576 1.92 13.2928 2.13333 13.028 2.13333C12.7632 2.13333 12.4984 1.92 12.4984 1.6V0H4.02492V1.6C4.02492 1.92 3.76012 2.13333 3.49533 2.13333C3.23053 2.13333 2.96573 1.92 2.96573 1.6V0H1.37695C0.582554 0 0 0.693333 0 1.6V3.52H16.947V1.6C16.947 0.693333 15.9938 0 15.1464 0ZM0 4.64V14.4C0 15.36 0.582555 16 1.42991 16H15.1994C16.0467 16 17 15.3067 17 14.4V4.64H0ZM4.7134 13.6H3.44237C3.23053 13.6 3.01869 13.44 3.01869 13.1733V11.84C3.01869 11.6267 3.17757 11.4133 3.44237 11.4133H4.76636C4.97819 11.4133 5.19003 11.5733 5.19003 11.84V13.1733C5.13707 13.44 4.97819 13.6 4.7134 13.6ZM4.7134 8.8H3.44237C3.23053 8.8 3.01869 8.64 3.01869 8.37333V7.04C3.01869 6.82667 3.17757 6.61333 3.44237 6.61333H4.76636C4.97819 6.61333 5.19003 6.77333 5.19003 7.04V8.37333C5.13707 8.64 4.97819 8.8 4.7134 8.8ZM8.95016 13.6H7.62617C7.41433 13.6 7.20249 13.44 7.20249 13.1733V11.84C7.20249 11.6267 7.36137 11.4133 7.62617 11.4133H8.95016C9.16199 11.4133 9.37383 11.5733 9.37383 11.84V13.1733C9.37383 13.44 9.21495 13.6 8.95016 13.6ZM8.95016 8.8H7.62617C7.41433 8.8 7.20249 8.64 7.20249 8.37333V7.04C7.20249 6.82667 7.36137 6.61333 7.62617 6.61333H8.95016C9.16199 6.61333 9.37383 6.77333 9.37383 7.04V8.37333C9.37383 8.64 9.21495 8.8 8.95016 8.8ZM13.1869 13.6H11.8629C11.6511 13.6 11.4393 13.44 11.4393 13.1733V11.84C11.4393 11.6267 11.5981 11.4133 11.8629 11.4133H13.1869C13.3988 11.4133 13.6106 11.5733 13.6106 11.84V13.1733C13.6106 13.44 13.4517 13.6 13.1869 13.6ZM13.1869 8.8H11.8629C11.6511 8.8 11.4393 8.64 11.4393 8.37333V7.04C11.4393 6.82667 11.5981 6.61333 11.8629 6.61333H13.1869C13.3988 6.61333 13.6106 6.77333 13.6106 7.04V8.37333C13.6106 8.64 13.4517 8.8 13.1869 8.8Z"
        fill="#999999" />
</svg>
