<svg width="40" height="50" viewBox="0 0 40 50" fill="none" xmlns="http://www.w3.org/2000/svg">
    <path
        d="M36.1778 6.25H27.7339V4.67857C27.7339 2.10714 25.6593 0 23.1116 0H16.9242C14.3765 0 12.3019 2.10714 12.3019 4.67857V6.25H3.858C1.71062 6.25 0 8 0 10.1429V13.2857C0 14.1429 0.691528 14.8571 1.52864 14.8571H38.4708C39.3079 14.8571 39.9994 14.1429 39.9994 13.2857V10.1429C40.0358 8 38.3252 6.25 36.1778 6.25ZM15.3956 4.67857C15.3956 3.82143 16.0871 3.10714 16.9242 3.10714H23.0752C23.9123 3.10714 24.6038 3.82143 24.6038 4.67857V6.25H15.3956V4.67857Z"
        fill="#E1473D" />
    <path
        d="M2.91183 17.9643C2.62066 17.9643 2.40228 18.2143 2.43868 18.4643L3.71254 45.5357C3.82173 48.0357 5.85992 50 8.33486 50H31.7012C34.1762 50 36.2144 48.0357 36.3235 45.5357L37.5974 18.4643C37.5974 18.1786 37.379 17.9643 37.1243 17.9643H2.91183ZM26.169 21.8929C26.169 21.0357 26.8605 20.3214 27.6976 20.3214C28.5348 20.3214 29.2263 21.0357 29.2263 21.8929V42.2143C29.2263 43.0714 28.5348 43.7857 27.6976 43.7857C26.8605 43.7857 26.169 43.0714 26.169 42.2143V21.8929ZM18.4894 21.8929C18.4894 21.0357 19.1809 20.3214 20.018 20.3214C20.8552 20.3214 21.5467 21.0357 21.5467 21.8929V42.2143C21.5467 43.0714 20.8552 43.7857 20.018 43.7857C19.1809 43.7857 18.4894 43.0714 18.4894 42.2143V21.8929ZM10.7734 21.8929C10.7734 21.0357 11.4649 20.3214 12.302 20.3214C13.1392 20.3214 13.8307 21.0357 13.8307 21.8929V42.2143C13.8307 43.0714 13.1392 43.7857 12.302 43.7857C11.4649 43.7857 10.7734 43.0714 10.7734 42.2143V21.8929Z"
        fill="#E1473D" />
</svg>
