<svg width="10" height="6" viewBox="0 0 10 6" fill="none" xmlns="http://www.w3.org/2000/svg">
    <path
        d="M5.02282 5.99999C4.92844 6.00056 4.83488 5.98165 4.74751 5.94434C4.66014 5.90704 4.58067 5.85208 4.51366 5.7826L0.210901 1.28491C0.0758633 1.14375 0 0.952306 0 0.752682C0 0.553059 0.0758633 0.361611 0.210901 0.220456C0.345938 0.0793003 0.529089 0 0.72006 0C0.911032 0 1.09418 0.0793003 1.22922 0.220456L5.02282 4.19342L8.81642 0.227952C8.9536 0.105145 9.13007 0.0409732 9.31055 0.0482603C9.49104 0.0555475 9.66224 0.133757 9.78996 0.267259C9.91768 0.400762 9.99249 0.579724 9.99946 0.768384C10.0064 0.957044 9.94505 1.14151 9.82756 1.28491L5.52481 5.7826C5.39123 5.92109 5.21095 5.99916 5.02282 5.99999Z"
        fill="#999999" />
</svg>
