<svg width="20" height="20" viewBox="0 0 20 20" fill="none" xmlns="http://www.w3.org/2000/svg">
    <path
        d="M19 3.00024H1C0.734784 3.00024 0.48043 3.1056 0.292893 3.29314C0.105357 3.48067 0 3.73503 0 4.00024C0 4.26546 0.105357 4.51981 0.292893 4.70735C0.48043 4.89489 0.734784 5.00024 1 5.00024H3V17.0002C3.00024 17.7958 3.31639 18.5587 3.87894 19.1213C4.4415 19.6839 5.20442 20 6 20.0002H14C14.7956 20 15.5585 19.6839 16.1211 19.1213C16.6836 18.5588 16.9998 17.7958 17 17.0002V5.00024H19C19.2652 5.00024 19.5196 4.89489 19.7071 4.70735C19.8946 4.51981 20 4.26546 20 4.00024C20 3.73503 19.8946 3.48067 19.7071 3.29314C19.5196 3.1056 19.2652 3.00024 19 3.00024ZM9 14.0002C9 14.2655 8.89464 14.5198 8.70711 14.7074C8.51957 14.8949 8.26522 15.0002 8 15.0002C7.73478 15.0002 7.48043 14.8949 7.29289 14.7074C7.10536 14.5198 7 14.2655 7 14.0002V9.00025C7 8.73503 7.10536 8.48067 7.29289 8.29314C7.48043 8.1056 7.73478 8.00024 8 8.00024C8.26522 8.00024 8.51957 8.1056 8.70711 8.29314C8.89464 8.48067 9 8.73503 9 9.00025V14.0002ZM13 14.0002C13 14.2655 12.8946 14.5198 12.7071 14.7074C12.5196 14.8949 12.2652 15.0002 12 15.0002C11.7348 15.0002 11.4804 14.8949 11.2929 14.7074C11.1054 14.5198 11 14.2655 11 14.0002V9.00025C11 8.73503 11.1054 8.48067 11.2929 8.29314C11.4804 8.1056 11.7348 8.00024 12 8.00024C12.2652 8.00024 12.5196 8.1056 12.7071 8.29314C12.8946 8.48067 13 8.73503 13 9.00025V14.0002Z"
        fill="white" />
    <path
        d="M7.99976 2H11.9998C12.265 2 12.5193 1.89464 12.7069 1.70711C12.8944 1.51957 12.9998 1.26522 12.9998 1C12.9998 0.734783 12.8944 0.48043 12.7069 0.292893C12.5193 0.105357 12.265 0 11.9998 0H7.99976C7.73454 0 7.48019 0.105357 7.29265 0.292893C7.10511 0.48043 6.99976 0.734783 6.99976 1C6.99976 1.26522 7.10511 1.51957 7.29265 1.70711C7.48019 1.89464 7.73454 2 7.99976 2Z"
        fill="white" />
</svg>
