<svg width="20" height="19" viewBox="0 0 20 19" fill="none" xmlns="http://www.w3.org/2000/svg">
    <path
        d="M17.9235 0H2.07648C1.67418 0.000318613 1.28063 0.118068 0.943573 0.338958C0.60652 0.559848 0.340463 0.874381 0.177693 1.24438C0.0149234 1.61439 -0.0375617 2.02395 0.026608 2.42337C0.0907778 2.82279 0.268844 3.19489 0.539194 3.49451L7.40698 11.0908V18.2549C7.40704 18.3949 7.44634 18.5321 7.52038 18.6507C7.59442 18.7693 7.70019 18.8646 7.82557 18.9255C7.92578 18.9752 8.03612 19.0007 8.14785 19C8.31623 18.9999 8.47954 18.942 8.61088 18.8361L10 17.7184L12.3152 15.8557C12.4018 15.7859 12.4718 15.6975 12.5199 15.5969C12.5679 15.4963 12.5929 15.3861 12.593 15.2745V11.0908L19.4608 3.49451C19.7312 3.19489 19.9092 2.82279 19.9734 2.42337C20.0376 2.02395 19.9851 1.61439 19.8223 1.24438C19.6595 0.874381 19.3935 0.559848 19.0564 0.338958C18.7194 0.118068 18.3258 0.000318613 17.9235 0Z"
        fill="black" />
</svg>
