<svg width="20" height="15" viewBox="0 0 20 15" fill="none" xmlns="http://www.w3.org/2000/svg">
    <path
        d="M1.57895 8.82353C0.708281 8.82353 0 8.22982 0 7.5C0 6.77018 0.708281 6.17648 1.57895 6.17648H18.4211C19.2917 6.17648 20 6.77018 20 7.5C20 8.22982 19.2917 8.82353 18.4211 8.82353H1.57895Z"
        fill="#333333" />
    <path
        d="M1.57895 2.64705C0.708281 2.64705 0 2.05338 0 1.32353C0 0.593673 0.708281 0 1.57895 0H18.4211C19.2917 0 20 0.593705 20 1.32353C20 2.05335 19.2917 2.64705 18.4211 2.64705H1.57895Z"
        fill="#333333" />
    <path
        d="M1.57895 15C0.708281 15 0 14.4063 0 13.6765C0 12.9466 0.708281 12.3529 1.57895 12.3529H18.4211C19.2917 12.3529 20 12.9466 20 13.6765C20 14.4063 19.2917 15 18.4211 15H1.57895Z"
        fill="#333333" />
</svg>
