<svg width="43" height="40" viewBox="0 0 43 40" fill="none" xmlns="http://www.w3.org/2000/svg">
    <path
        d="M42.211 18.4486C42.0678 17.5281 41.6313 16.6784 40.9665 16.0258C40.3017 15.3733 39.4441 14.9527 38.5211 14.8265H26.9837C26.8635 14.8259 26.7452 14.7966 26.6386 14.741C26.532 14.6855 26.4402 14.6053 26.3709 14.5072C26.3015 14.409 26.2566 14.2958 26.2398 14.1767C26.223 14.0577 26.2349 13.9364 26.2744 13.8229C26.693 12.7003 27.026 11.5475 27.2704 10.3745C28.3567 6.28662 27.8756 2.84373 24.2368 0.519774C23.7067 0.190873 23.0975 0.0114588 22.4738 0.000530867C21.85 -0.010397 21.2349 0.147568 20.6936 0.457698C20.1522 0.767828 19.7049 1.21858 19.3988 1.76221C19.0928 2.30585 18.9394 2.92213 18.9551 3.54579C18.9657 5.20723 19.3473 7.87937 18.6682 9.41624C17.6094 12.2529 16.2484 14.9674 14.6086 17.5128L13.7861 18.3957C14.3326 19.1787 14.6226 20.112 14.6162 21.0669V36.7545C14.6144 37.6307 14.3717 38.4896 13.9144 39.2371C14.7847 39.7166 15.7582 39.9781 16.7516 39.9992H34.4464C35.3833 40.0177 36.2992 39.7204 37.0466 39.1551C37.7939 38.5898 38.3293 37.7894 38.5664 36.8828C38.772 35.9058 38.5937 34.8871 38.0684 34.038C38.9921 33.6487 39.7281 32.9154 40.1208 31.9931C40.3462 31.4474 40.445 30.8576 40.4097 30.2682C40.3744 29.6788 40.206 29.105 39.9171 28.59C40.8518 28.1963 41.5943 27.4511 41.9846 26.515C42.2589 25.7709 42.3093 24.9628 42.1297 24.1904C41.95 23.418 41.548 22.7152 40.9735 22.1686C41.4572 21.6892 41.8213 21.1026 42.0363 20.4563C42.2513 19.81 42.3112 19.1222 42.211 18.4486Z"
        fill="#00BF13" fill-opacity="0.2" />
    <path
        d="M9.87739 17.8296H0.754575C0.554633 17.8302 0.363051 17.9099 0.22167 18.0513C0.0802886 18.1926 0.000597143 18.3842 0 18.5842V39.2369C0.000597143 39.4368 0.0802886 39.6284 0.22167 39.7698C0.363051 39.9112 0.554633 39.9909 0.754575 39.9915H9.87739C10.4491 39.9908 11.0104 39.8381 11.5036 39.549C11.9969 39.26 12.4044 38.8449 12.6844 38.3465C12.9637 37.8625 13.1096 37.3131 13.107 36.7543V21.0667C13.1069 20.2095 12.7668 19.3873 12.1614 18.7805C11.556 18.1736 10.7346 17.8317 9.87739 17.8296Z"
        fill="#00BF13" fill-opacity="0.2" />
    <path
        d="M32.0691 5.65114C32.9693 5.6525 33.8322 6.01068 34.4687 6.64718C35.1052 7.28368 35.4634 8.14658 35.4647 9.04673C35.4677 9.24491 35.5485 9.43399 35.6897 9.5731C35.8309 9.71221 36.0211 9.79019 36.2193 9.79019C36.4175 9.79019 36.6078 9.71221 36.749 9.5731C36.8902 9.43399 36.9709 9.24491 36.9739 9.04673C36.9752 8.14658 37.3334 7.28368 37.9699 6.64718C38.6064 6.01068 39.4693 5.65249 40.3695 5.65114C40.5677 5.6482 40.7567 5.5674 40.8959 5.42621C41.035 5.28502 41.1129 5.09477 41.1129 4.89656C41.1129 4.69835 41.035 4.5081 40.8959 4.36691C40.7567 4.22572 40.5677 4.14493 40.3695 4.14199C39.4693 4.14063 38.6064 3.78244 37.9699 3.14594C37.3334 2.50944 36.9752 1.64654 36.9739 0.746396C36.9709 0.548208 36.8902 0.359133 36.749 0.220022C36.6078 0.0809096 36.4175 0.00292969 36.2193 0.00292969C36.0211 0.00292969 35.8309 0.0809096 35.6897 0.220022C35.5485 0.359133 35.4677 0.548208 35.4647 0.746396C35.4634 1.64654 35.1052 2.50944 34.4687 3.14594C33.8322 3.78244 32.9693 4.14063 32.0691 4.14199C31.871 4.14505 31.6821 4.2259 31.5431 4.36708C31.4041 4.50826 31.3262 4.69844 31.3262 4.89656C31.3262 5.09469 31.4041 5.28486 31.5431 5.42604C31.6821 5.56722 31.871 5.64807 32.0691 5.65114Z"
        fill="#00BF13" fill-opacity="0.2" />
    <path
        d="M6.41387 5.65114C7.31402 5.6525 8.17692 6.01068 8.81342 6.64718C9.44992 7.28368 9.8081 8.14658 9.80946 9.04673C9.8124 9.24491 9.8932 9.43399 10.0344 9.5731C10.1756 9.71221 10.3658 9.79019 10.564 9.79019C10.7622 9.79019 10.9525 9.71221 11.0937 9.5731C11.2349 9.43399 11.3157 9.24491 11.3186 9.04673C11.32 8.14658 11.6782 7.28368 12.3147 6.64718C12.9512 6.01068 13.8141 5.65249 14.7142 5.65114C14.9124 5.6482 15.1015 5.5674 15.2406 5.42621C15.3797 5.28502 15.4577 5.09477 15.4577 4.89656C15.4577 4.69835 15.3797 4.5081 15.2406 4.36691C15.1015 4.22572 14.9124 4.14493 14.7142 4.14199C13.8141 4.14063 12.9512 3.78244 12.3147 3.14594C11.6782 2.50944 11.32 1.64654 11.3186 0.746396C11.3157 0.548208 11.2349 0.359133 11.0937 0.220022C10.9525 0.0809096 10.7622 0.00292969 10.564 0.00292969C10.3658 0.00292969 10.1756 0.0809096 10.0344 0.220022C9.8932 0.359133 9.8124 0.548208 9.80946 0.746396C9.8081 1.64654 9.44992 2.50944 8.81342 3.14594C8.17692 3.78244 7.31402 4.14063 6.41387 4.14199C6.21577 4.14505 6.02682 4.2259 5.88782 4.36708C5.74881 4.50826 5.6709 4.69844 5.6709 4.89656C5.6709 5.09469 5.74881 5.28486 5.88782 5.42604C6.02682 5.56722 6.21577 5.64807 6.41387 5.65114Z"
        fill="#00BF13" fill-opacity="0.2" />
</svg>
