<svg width="32" height="30" viewBox="0 0 32 30" fill="none" xmlns="http://www.w3.org/2000/svg">
    <path fill-rule="evenodd" clip-rule="evenodd"
        d="M27.4069 -3.01152e-05C27.5641 0.000328453 27.7147 0.0631279 27.8258 0.174601C27.9369 0.286076 27.9993 0.437128 27.9994 0.594649L27.9994 11.8375L31.4056 11.8375C31.5179 11.8374 31.6279 11.8693 31.7228 11.9293C31.8177 11.9893 31.8938 12.075 31.9421 12.1765C31.9904 12.278 32.0091 12.3912 31.9959 12.5029C31.9827 12.6146 31.9381 12.7203 31.8675 12.8076L25.3449 20.8208C25.2893 20.8893 25.2193 20.9445 25.1398 20.9824C25.0603 21.0204 24.9733 21.04 24.8853 21.04C24.7972 21.04 24.7103 21.0204 24.6308 20.9824C24.5513 20.9445 24.4812 20.8893 24.4257 20.8208L17.903 12.8079C17.8323 12.7205 17.7878 12.6149 17.7746 12.5032C17.7614 12.3915 17.78 12.2783 17.8284 12.1768C17.8767 12.0752 17.9528 11.9895 18.0477 11.9295C18.1427 11.8695 18.2527 11.8377 18.3649 11.8378L21.7709 11.8378L21.7709 0.595036C21.771 0.437509 21.8334 0.286454 21.9445 0.174983C22.0556 0.0635118 22.2063 0.000714206 22.3635 0.000357518L27.4069 -3.01152e-05Z"
        fill="#E41818" fill-opacity="0.2" />
    <path
        d="M12.6253 25.4604C9.29838 27.4425 9.92397 25.0451 9.86854 29.2367C9.86854 29.8141 9.68343 29.9999 9.10733 29.9999C8.15179 29.9999 7.19492 29.9999 6.23673 29.9999C5.73191 29.9999 5.54383 29.8101 5.54383 29.3079C5.54383 28.5042 5.54383 27.6985 5.54383 26.9274C4.65296 26.7574 3.76901 26.6476 2.92565 26.4133C2.08229 26.1791 1.24288 25.8311 0.422289 25.4999C0.0105064 25.3338 -0.0647234 25.1134 0.0461411 24.6794C0.349039 23.4997 0.653256 22.3199 0.958793 21.1402C1.09143 20.6301 1.39235 20.4749 1.85858 20.7132C3.77693 21.678 6.00214 22.3374 8.15212 21.8906C9.27759 21.6652 10.0823 20.6321 9.16969 19.6425C8.60052 19.0494 7.84625 18.7785 7.10682 18.4799C6.00808 18.0361 4.88359 17.6406 3.81454 17.1295C-0.129064 15.4746 -1.07636 10.2094 2.11099 7.32673C3.03454 6.50365 4.1464 5.91975 5.34883 5.62636C5.62005 5.55617 5.72003 5.44644 5.70914 5.15579C5.6834 4.45588 5.69825 3.75596 5.70221 3.05604C5.70221 2.51825 5.90018 2.3235 6.42976 2.32251C7.37409 2.32251 8.3194 2.32251 9.26571 2.32251C9.82003 2.32251 9.9992 2.51133 9.99821 3.0768C9.99821 3.6917 10.0051 4.3066 9.99227 4.92051C9.98732 5.1469 10.0447 5.23488 10.2892 5.2507C11.6687 5.34366 13.0205 5.68144 14.2813 6.24818C14.7228 6.4459 14.8248 6.63571 14.703 7.09837C14.41 8.21415 14.1131 9.32993 13.8121 10.4457C13.6567 11.026 13.3707 11.1634 12.8223 10.8945C11.0623 10.0651 8.99152 9.57181 7.09099 10.1551C6.11003 10.5149 5.97937 11.4916 6.8554 12.0462C7.59408 12.4967 8.37117 12.8811 9.17761 13.195C10.3753 13.6893 11.585 14.1272 12.7084 14.7915C16.7491 17.1849 16.5254 23.1095 12.6253 25.4604Z"
        fill="#E41818" fill-opacity="0.2" />
</svg>
