<svg width="27" height="30" viewBox="0 0 27 30" fill="none" xmlns="http://www.w3.org/2000/svg">
    <path
        d="M25.6033 0.766066C25.1754 0.493773 24.6854 0.33444 24.1791 0.302963C23.6729 0.271486 23.1669 0.368893 22.7085 0.586078C22.3485 0.766066 22.0336 0.961053 21.7036 1.15604C21.07 1.63467 20.2924 1.8833 19.4987 1.86099C18.7057 1.87859 17.9296 1.63044 17.2939 1.15604C16.1826 0.380128 14.8542 -0.0241515 13.4991 0.00111624C12.1441 -0.0231226 10.8161 0.381063 9.70437 1.15604C9.06812 1.62941 8.29237 1.87744 7.49951 1.86099C6.70616 1.88092 5.92929 1.63254 5.29466 1.15604C4.97968 0.961053 4.6497 0.766066 4.28972 0.586078C3.83197 0.368057 3.32642 0.269617 2.82031 0.299955C2.3142 0.330293 1.82403 0.488417 1.3956 0.759558C0.967163 1.0307 0.614444 1.40601 0.370389 1.85043C0.126334 2.29485 -0.00109429 2.79388 7.07919e-06 3.3009V26.6994C-0.00109429 27.2064 0.126334 27.7054 0.370389 28.1498C0.614444 28.5942 0.967163 28.9696 1.3956 29.2407C1.82403 29.5118 2.3142 29.67 2.82031 29.7003C3.32642 29.7306 3.83197 29.6322 4.28972 29.4142C4.6497 29.2342 4.97968 29.0392 5.29466 28.8442C5.92929 28.3677 6.70616 28.1193 7.49951 28.1393C8.29747 28.1195 9.07904 28.3677 9.71937 28.8442C10.8269 29.6162 12.1492 30.0202 13.4991 29.9991C14.8491 30.0212 16.1718 29.6171 17.2789 28.8442C17.9187 28.3666 18.7006 28.1183 19.4987 28.1393C20.2924 28.117 21.07 28.3656 21.7036 28.8442C22.0285 29.0469 22.3639 29.2322 22.7085 29.3992C23.1651 29.6167 23.6693 29.7152 24.1742 29.6855C24.6791 29.6559 25.1683 29.4991 25.5963 29.2297C26.0243 28.9603 26.3773 28.5871 26.6224 28.1447C26.8675 27.7023 26.9968 27.2051 26.9982 26.6994V3.3009C26.9983 2.79504 26.8705 2.29738 26.6266 1.8542C26.3827 1.41101 26.0307 1.0367 25.6033 0.766066ZM7.49951 19.4998C7.20286 19.4998 6.91287 19.4119 6.66621 19.2471C6.41956 19.0822 6.22731 18.848 6.11378 18.5739C6.00026 18.2998 5.97056 17.9983 6.02843 17.7073C6.08631 17.4164 6.22916 17.1491 6.43892 16.9393C6.64869 16.7296 6.91594 16.5867 7.2069 16.5288C7.49785 16.471 7.79943 16.5007 8.0735 16.6142C8.34757 16.7277 8.58182 16.92 8.74664 17.1666C8.91145 17.4133 8.99941 17.7033 8.99941 17.9999C8.99941 18.3977 8.84139 18.7792 8.5601 19.0605C8.27882 19.3418 7.89731 19.4998 7.49951 19.4998ZM7.49951 13.5002C7.20286 13.5002 6.91287 13.4123 6.66621 13.2474C6.41956 13.0826 6.22731 12.8484 6.11378 12.5743C6.00026 12.3002 5.97056 11.9987 6.02843 11.7077C6.08631 11.4168 6.22916 11.1495 6.43892 10.9397C6.64869 10.73 6.91594 10.5871 7.2069 10.5292C7.49785 10.4714 7.79943 10.5011 8.0735 10.6146C8.34757 10.7281 8.58182 10.9204 8.74664 11.167C8.91145 11.4137 8.99941 11.7037 8.99941 12.0003C8.99941 12.3981 8.84139 12.7796 8.5601 13.0609C8.27882 13.3422 7.89731 13.5002 7.49951 13.5002ZM19.4987 19.4998H11.9992C11.6014 19.4998 11.2199 19.3418 10.9386 19.0605C10.6573 18.7792 10.4993 18.3977 10.4993 17.9999C10.4993 17.6021 10.6573 17.2206 10.9386 16.9393C11.2199 16.6581 11.6014 16.5 11.9992 16.5H19.4987C19.8965 16.5 20.278 16.6581 20.5593 16.9393C20.8406 17.2206 20.9986 17.6021 20.9986 17.9999C20.9986 18.3977 20.8406 18.7792 20.5593 19.0605C20.278 19.3418 19.8965 19.4998 19.4987 19.4998ZM19.4987 13.5002H11.9992C11.6014 13.5002 11.2199 13.3422 10.9386 13.0609C10.6573 12.7796 10.4993 12.3981 10.4993 12.0003C10.4993 11.6025 10.6573 11.221 10.9386 10.9397C11.2199 10.6585 11.6014 10.5004 11.9992 10.5004H19.4987C19.8965 10.5004 20.278 10.6585 20.5593 10.9397C20.8406 11.221 20.9986 11.6025 20.9986 12.0003C20.9986 12.3981 20.8406 12.7796 20.5593 13.0609C20.278 13.3422 19.8965 13.5002 19.4987 13.5002Z"
        fill="#F59032" fill-opacity="0.3" />
</svg>
