<svg width="18" height="17" viewBox="0 0 18 17" fill="none" xmlns="http://www.w3.org/2000/svg">
    <path
        d="M9.00135 16.9999C7.18282 17.0015 5.40651 16.458 3.90678 15.441C2.40705 14.4241 1.25438 12.9815 0.600829 11.3035C-0.0527185 9.6256 -0.176426 7.79119 0.246026 6.04231C0.668479 4.29344 1.61724 2.71228 2.96714 1.50746C3.25026 1.26388 3.61873 1.13986 3.99335 1.16205C4.36797 1.18425 4.71882 1.35088 4.9705 1.62614C5.22218 1.9014 5.35458 2.2633 5.33925 2.63405C5.32392 3.00481 5.16208 3.35482 4.88852 3.60884C4.25342 4.1772 3.7457 4.87071 3.398 5.64476C3.05031 6.41881 2.87035 7.25626 2.86971 8.10322C2.86971 11.4468 5.62044 14.1666 9.00135 14.1666C12.3823 14.1666 15.133 11.4468 15.133 8.10393C15.1324 7.25697 14.9524 6.41952 14.6047 5.64547C14.257 4.87142 13.7493 4.17791 13.1142 3.60955C12.8406 3.35553 12.6788 3.00552 12.6635 2.63476C12.6481 2.26401 12.7805 1.9021 13.0322 1.62685C13.2839 1.35159 13.6347 1.18495 14.0094 1.16276C14.384 1.14057 14.7524 1.26459 15.0356 1.50816C16.3846 2.71331 17.3325 4.29438 17.7544 6.04293C18.1764 7.79147 18.0525 9.6254 17.399 11.3029C16.7456 12.9804 15.5934 14.4228 14.0943 15.4398C12.5951 16.4568 10.8194 17.0007 9.00135 16.9999Z"
        fill="black" />
    <path
        d="M9.00115 7.60112C8.62115 7.60112 8.25672 7.45187 7.98801 7.18619C7.71931 6.92052 7.56836 6.56018 7.56836 6.18446V1.41667C7.56836 1.04094 7.71931 0.680608 7.98801 0.414932C8.25672 0.149255 8.62115 0 9.00115 0C9.38115 0 9.74559 0.149255 10.0143 0.414932C10.283 0.680608 10.4339 1.04094 10.4339 1.41667V6.18446C10.4339 6.56018 10.283 6.92052 10.0143 7.18619C9.74559 7.45187 9.38115 7.60112 9.00115 7.60112Z"
        fill="black" />
</svg>
