<svg width="24" height="24" viewBox="0 0 24 24" fill="none" xmlns="http://www.w3.org/2000/svg">
    <circle cx="12" cy="12" r="11.5" fill="#F5F5F5" stroke="#E0E0E0" />
    <path
        d="M12.7143 11.9772C12.7148 12.0716 12.6968 12.1651 12.6613 12.2525C12.6258 12.3399 12.5734 12.4193 12.5072 12.4863L8.22372 16.7891C8.08929 16.9241 7.90696 17 7.71684 17C7.52672 17 7.34439 16.9241 7.20996 16.7891C7.07552 16.6541 7 16.4709 7 16.2799C7 16.089 7.07552 15.9058 7.20996 15.7708L10.9937 11.9772L7.2171 8.18358C7.10014 8.0464 7.03902 7.86993 7.04596 7.68945C7.0529 7.50896 7.12739 7.33776 7.25453 7.21004C7.38168 7.08232 7.55212 7.00751 7.73179 7.00054C7.91147 6.99356 8.08715 7.05495 8.22372 7.17244L12.5072 11.4752C12.6391 11.6088 12.7135 11.7891 12.7143 11.9772Z"
        fill="#999999" />
    <path
        d="M11.2857 12.0228C11.2852 11.9284 11.3032 11.8349 11.3387 11.7475C11.3742 11.6601 11.4266 11.5807 11.4928 11.5137L15.7763 7.2109C15.9107 7.07586 16.093 7 16.2832 7C16.4733 7 16.6556 7.07586 16.79 7.2109C16.9245 7.34594 17 7.52909 17 7.72006C17 7.91103 16.9245 8.09418 16.79 8.22922L13.0063 12.0228L16.7829 15.8164C16.8999 15.9536 16.961 16.1301 16.954 16.3106C16.9471 16.491 16.8726 16.6622 16.7455 16.79C16.6183 16.9177 16.4479 16.9925 16.2682 16.9995C16.0885 17.0064 15.9129 16.945 15.7763 16.8276L11.4928 12.5248C11.3609 12.3912 11.2865 12.2109 11.2857 12.0228Z"
        fill="#999999" />
</svg>
