<svg width="20" height="17" viewBox="0 0 20 17" fill="none" xmlns="http://www.w3.org/2000/svg">
    <path
        d="M5.93555 9.70043C6.213 9.38031 5.98699 8.88048 5.56474 8.88048H4.30054C4.29231 8.75466 4.2877 8.62787 4.2877 8.50002C4.2877 5.33191 6.85022 2.75452 9.99999 2.75452C11.5137 2.75452 12.8915 3.34993 13.9147 4.31988L15.6973 2.2223C14.1368 0.786472 12.1286 0 9.99999 0C7.74267 0 5.62047 0.884177 4.0243 2.48958C2.42816 4.09503 1.54909 6.22955 1.54909 8.49998C1.54909 8.62728 1.55225 8.75408 1.55775 8.88044H0.492907C0.0706611 8.88044 -0.15539 9.38027 0.1221 9.70039L2.52425 12.4718L3.02881 13.0539L4.84034 10.9639L5.93555 9.70043Z"
        fill="white" />
    <path
        d="M19.878 8.08349L18.0863 6.0164L16.9713 4.72998L15.3793 6.56668L14.0646 8.08349C13.7871 8.40361 14.0131 8.90344 14.4354 8.90344H15.6981C15.4915 11.884 13.015 14.2455 10.0001 14.2455C8.68403 14.2455 7.47064 13.7953 6.50372 13.0402L4.72095 15.138C6.21444 16.3443 8.05704 17 10.0001 17C12.2575 17 14.3797 16.1159 15.9758 14.5104C17.4771 13.0004 18.3438 11.0224 18.4415 8.90348H19.5072C19.9294 8.90344 20.1554 8.40361 19.878 8.08349Z"
        fill="white" />
</svg>
