<svg width="18" height="17" viewBox="0 0 18 17" fill="none" xmlns="http://www.w3.org/2000/svg">
    <path
        d="M16.926 5.96195C16.5759 5.9116 16.2418 5.78369 15.9485 5.58776C15.6552 5.39183 15.4104 5.13292 15.2322 4.8303C15.054 4.52769 14.9471 4.18918 14.9193 3.83997C14.8916 3.49076 14.9438 3.13986 15.072 2.81339C15.1535 2.59995 15.1655 2.36661 15.1063 2.14608C15.0472 1.92555 14.9198 1.72889 14.742 1.58366C13.9572 0.931176 13.0639 0.4186 12.102 0.0687867C11.883 -0.0117792 11.6438 -0.0218453 11.4187 0.0400224C11.1935 0.10189 10.9938 0.232536 10.848 0.413347C10.6286 0.691165 10.3481 0.915861 10.0279 1.07039C9.70774 1.22493 9.35621 1.30524 9.00001 1.30524C8.6438 1.30524 8.29227 1.22493 7.97208 1.07039C7.65189 0.915861 7.37144 0.691165 7.15201 0.413347C7.00622 0.232536 6.80652 0.10189 6.58136 0.0400224C6.35619 -0.0218453 6.11706 -0.0117792 5.89801 0.0687867C5.00981 0.391748 4.17936 0.853002 3.43801 1.43515C3.25114 1.58162 3.11653 1.78349 3.05391 2.01119C2.99129 2.23888 3.00394 2.48045 3.09001 2.70051C3.22846 3.03562 3.28567 3.39819 3.25703 3.75914C3.2284 4.12009 3.11473 4.46938 2.92513 4.77897C2.73554 5.08857 2.4753 5.34986 2.16529 5.54189C1.85528 5.73392 1.50413 5.85133 1.14001 5.88472C0.903617 5.90975 0.681583 6.00926 0.506599 6.16861C0.331616 6.32796 0.212929 6.53873 0.168013 6.76989C0.0562915 7.31744 1.29842e-05 7.87466 1.29842e-05 8.43328C-0.000808172 8.90094 0.037321 9.36788 0.114013 9.82934C0.152182 10.0679 0.268661 10.2874 0.445441 10.4538C0.622221 10.6203 0.849455 10.7244 1.09201 10.7501C1.46413 10.7847 1.82247 10.9071 2.13703 11.1069C2.4516 11.3067 2.71325 11.5783 2.90007 11.8988C3.08689 12.2193 3.19346 12.5794 3.21084 12.9491C3.22823 13.3188 3.15594 13.6872 3.00001 14.0235C2.89797 14.2422 2.87266 14.4885 2.92809 14.7231C2.98353 14.9577 3.11654 15.1673 3.30601 15.3185C4.08608 15.9592 4.97075 16.4634 5.92201 16.8097C6.04365 16.8514 6.17128 16.8734 6.30001 16.875C6.47651 16.8746 6.65035 16.8323 6.80694 16.7517C6.96354 16.6711 7.09833 16.5545 7.20001 16.4116C7.41386 16.1031 7.70052 15.851 8.03511 15.6771C8.3697 15.5031 8.74211 15.4127 9.12001 15.4136C9.48616 15.4141 9.84714 15.4991 10.1742 15.6621C10.5013 15.8251 10.7854 16.0614 11.004 16.3522C11.1494 16.5457 11.3553 16.6862 11.5897 16.7517C11.8241 16.8173 12.0739 16.8042 12.3 16.7146C13.1698 16.368 13.9796 15.8889 14.7 15.2948C14.881 15.1466 15.0098 14.9455 15.068 14.7202C15.1263 14.495 15.1108 14.2573 15.024 14.0413C14.8829 13.7105 14.8213 13.3518 14.8443 12.9934C14.8672 12.635 14.9739 12.2868 15.156 11.9763C15.3382 11.6658 15.5907 11.4014 15.8937 11.2041C16.1967 11.0067 16.5419 10.8819 16.902 10.8393C17.1355 10.8073 17.3527 10.7025 17.522 10.5402C17.6914 10.3778 17.8042 10.1663 17.844 9.93627C17.9404 9.44077 17.9926 8.93783 18 8.43328C18.0001 7.90108 17.9499 7.37004 17.85 6.84712C17.8095 6.62214 17.6984 6.41553 17.5325 6.25663C17.3667 6.09773 17.1544 5.99462 16.926 5.96195ZM12 8.43328C12 9.02076 11.8241 9.59504 11.4944 10.0835C11.1648 10.572 10.6962 10.9527 10.1481 11.1775C9.59988 11.4023 8.99668 11.4612 8.41474 11.3466C7.83279 11.2319 7.29824 10.949 6.87869 10.5336C6.45913 10.1182 6.17341 9.58896 6.05765 9.01276C5.9419 8.43657 6.00131 7.83934 6.22837 7.29658C6.45543 6.75382 6.83995 6.28991 7.3333 5.96353C7.82664 5.63714 8.40666 5.46293 9.00001 5.46293C9.79566 5.46293 10.5587 5.77588 11.1213 6.33293C11.6839 6.88998 12 7.64549 12 8.43328Z"
        fill="black" />
</svg>
