<svg width="18" height="18" viewBox="0 0 18 18" fill="none" xmlns="http://www.w3.org/2000/svg">
    <path fill-rule="evenodd" clip-rule="evenodd"
        d="M4.18798 11.2558C4.82852 12.2941 5.7057 13.1713 6.74421 13.812L3.08561 17.4706C2.37977 18.1765 1.23537 18.1765 0.529524 17.4706C0.529489 17.4705 0.529453 17.4705 0.529383 17.4705C-0.176461 16.7646 -0.176461 15.6202 0.529383 14.9144L4.18798 11.2558ZM10.8318 0C14.788 0 18 3.21195 18 7.16817C18 11.1244 14.788 14.3363 10.8318 14.3363C6.87562 14.3363 3.6637 11.1244 3.6637 7.16817C3.6637 3.21195 6.87562 0 10.8318 0ZM10.8318 2.46531C8.23627 2.46531 6.129 4.57258 6.129 7.16817C6.129 9.76373 8.23627 11.871 10.8318 11.871C13.4274 11.871 15.5347 9.76373 15.5347 7.16817C15.5347 4.57258 13.4274 2.46531 10.8318 2.46531Z"
        fill="#333333" />
</svg>
