<svg width="16" height="15" viewBox="0 0 16 15" fill="none" xmlns="http://www.w3.org/2000/svg">
    <path
        d="M15.5444 6.34381L8.87252 0.337C8.63056 0.1198 8.32094 0.00014383 8.00053 1.29582e-07C7.68012 -0.000143571 7.37041 0.119235 7.12826 0.336218L0.458564 6.34078C0.254412 6.52276 0.108969 6.76496 0.0417482 7.03486C-0.0254722 7.30477 -0.0112534 7.58948 0.0824967 7.8508C0.176247 8.11211 0.345043 8.33752 0.566238 8.49679C0.787432 8.65606 1.05044 8.74156 1.31998 8.74183H2.13707V13.631C2.13749 13.994 2.27711 14.3419 2.5253 14.5985C2.77348 14.8552 3.10997 14.9996 3.46096 15H5.35224C5.70322 14.9996 6.03971 14.8552 6.2879 14.5985C6.53609 14.3419 6.6757 13.994 6.67613 13.631V11.6753C6.67633 11.4839 6.71529 11.2945 6.79048 11.1196C6.86568 10.9446 6.97545 10.7878 7.11275 10.6593C7.25033 10.5298 7.41296 10.4319 7.58986 10.3723C7.76677 10.3126 7.95392 10.2925 8.13891 10.3132C8.47655 10.3671 8.78347 10.5469 9.00177 10.8186C9.22007 11.0904 9.33465 11.4353 9.32391 11.7884V13.631C9.32434 13.994 9.46395 14.3419 9.71214 14.5986C9.96032 14.8552 10.2968 14.9996 10.6478 15H12.5391C12.8901 14.9996 13.2266 14.8552 13.4747 14.5986C13.7229 14.3419 13.8625 13.994 13.863 13.631V8.74184H14.6801C14.9492 8.74161 15.2119 8.65636 15.433 8.49749C15.654 8.33863 15.8228 8.11373 15.9168 7.85292C16.0108 7.5921 16.0255 7.30781 15.959 7.03811C15.8924 6.7684 15.7478 6.52616 15.5444 6.34381Z"
        fill="#999999" />
</svg>
