<svg width="18" height="14" viewBox="0 0 18 14" fill="none" xmlns="http://www.w3.org/2000/svg">
    <path
        d="M5.46071 0C3.64907 0 2.17522 1.56469 2.17522 3.48793C2.17522 5.41118 3.64907 6.97586 5.46071 6.97586C7.27235 6.97586 8.74624 5.41118 8.74624 3.48793C8.74624 1.56469 7.27238 0 5.46071 0Z"
        fill="#333333" />
    <path
        d="M12.9304 0.499115C12.923 0.499115 12.9155 0.49915 12.908 0.499185C12.1477 0.505486 11.4376 0.826907 10.9084 1.40431C10.3885 1.9715 10.1058 2.71977 10.1123 3.51123C10.1189 4.30269 10.4139 5.04618 10.943 5.60475C11.4763 6.16765 12.1828 6.47678 12.9346 6.47678C12.9422 6.47678 12.9498 6.47675 12.9574 6.47671C13.7176 6.47041 14.4278 6.14895 14.957 5.57159C15.4769 5.00439 15.7596 4.25612 15.7531 3.46463C15.7395 1.82447 14.4755 0.499115 12.9304 0.499115Z"
        fill="#333333" />
    <path
        d="M13.069 7.04779H12.7962C11.5256 7.04779 10.3662 7.53145 9.49078 8.32418C9.70981 8.49244 9.91828 8.67584 10.1159 8.87367C10.6988 9.4573 11.1565 10.1374 11.4764 10.8949C11.7647 11.5771 11.9292 12.2959 11.9675 13.0362H18V11.9847C18 9.26264 15.788 7.04779 13.069 7.04779Z"
        fill="#333333" />
    <path
        d="M10.9107 13.0362C10.8113 11.4314 9.99879 10.0198 8.78625 9.11514C7.90418 8.45688 6.81012 8.0672 5.625 8.0672H5.29664C2.37129 8.06723 0 10.4415 0 13.3706V14H10.9213V13.3706C10.9213 13.2583 10.9178 13.1467 10.9107 13.0362Z"
        fill="#333333" />
</svg>
